<svg width="89" height="73" viewBox="0 0 89 73" fill="none" xmlns="http://www.w3.org/2000/svg">
<path d="M24.6672 0.211914C18.2907 0.211914 12.1753 2.71394 7.66638 7.16758C3.15747 11.6212 0.62439 17.6616 0.62439 23.96C0.62439 26.119 1.01782 28.2779 1.5861 30.4368H19.4215L24.9732 15.8857C26.2847 12.4314 31.443 12.086 33.1041 15.8857L42.153 39.0725L44.7321 32.9412C45.3004 31.5163 46.8304 30.4368 48.7101 30.4368H87.0912C87.6595 28.2779 88.053 26.119 88.053 23.96C88.053 17.6616 85.5199 11.6212 81.011 7.16758C76.5021 2.71394 70.3867 0.211914 64.0101 0.211914C55.8792 0.211914 48.7101 4.22751 44.3387 10.3157C39.9672 4.22751 32.7981 0.211914 24.6672 0.211914ZM4.99582 36.9136C3.83644 36.9136 2.72455 37.3685 1.90475 38.1782C1.08495 38.988 0.62439 40.0862 0.62439 41.2314C0.62439 42.3766 1.08495 43.4748 1.90475 44.2846C2.72455 45.0943 3.83644 45.5492 4.99582 45.5492H15.6621L39.9672 69.2974C44.3387 73.1834 44.3387 73.1834 48.7101 69.2974L73.0152 45.5492H83.6815C84.8409 45.5492 85.9528 45.0943 86.7726 44.2846C87.5924 43.4748 88.053 42.3766 88.053 41.2314C88.053 40.0862 87.5924 38.988 86.7726 38.1782C85.9528 37.3685 84.8409 36.9136 83.6815 36.9136H50.4587L46.3932 46.8446C44.6447 51.2056 39.6175 50.6011 38.0001 46.9741L29.0387 23.96L24.8421 34.0206C24.1864 35.6614 22.7001 36.9136 20.733 36.9136H4.99582Z" fill="#1D957F"/>
</svg>
