<svg width="68" height="73" viewBox="0 0 68 73" fill="none" xmlns="http://www.w3.org/2000/svg">
<path d="M33.8107 0.882568C27.9731 0.882568 24.4788 1.76872 22.2578 2.87365C21.1458 3.42749 20.3564 4.00903 19.8254 4.60441C19.2917 5.1998 18.9553 6.07488 18.9553 6.07488C18.8682 6.29728 18.8102 6.52998 18.783 6.76718L17.3041 25.7198C17.2847 25.8361 17.3236 26.0244 17.3041 26.1518L17.1318 28.057C17.1156 28.2293 17.1156 28.4026 17.1318 28.5749C17.1318 37.7133 24.6373 45.1903 33.8107 45.1903C42.9841 45.1903 50.4896 37.7133 50.4896 28.5749V28.1429C50.49 28.1143 50.49 28.0856 50.4896 28.057L48.8384 6.76718C48.8111 6.52998 48.7532 6.29728 48.666 6.07488C48.666 6.07488 48.3297 5.1998 47.7959 4.60441C47.265 4.00626 46.4755 3.42472 45.3636 2.87365C43.1425 1.76595 39.6483 0.882568 33.8107 0.882568ZM33.8107 45.1903C15.4639 45.1903 0.452881 53.7915 0.452881 61.5453V72.8826H67.1685V61.5453C67.1685 54.1792 53.5974 46.0653 36.5043 45.2761C35.6077 45.2172 34.7093 45.1885 33.8107 45.1903ZM33.8107 6.42103C39.0923 6.42103 41.7304 7.2518 42.8451 7.80565C43.2176 7.99118 43.2621 8.06318 43.3677 8.1518L44.4963 22.3441C41.9389 22.4992 38.453 23.0364 33.8107 23.0364C29.1684 23.0364 25.6853 22.4992 23.1251 22.3441L24.2537 8.1518C24.3565 8.06318 24.4038 7.99118 24.7763 7.80565C25.891 7.2518 28.529 6.42103 33.8107 6.42103ZM31.5507 9.19026V12.4801H28.251V16.9801H31.5535V20.2672H36.0679V16.9773H39.3703V12.4801H36.0679V9.19026H31.5535H31.5507ZM25.4712 51.421L32.5959 67.3441H6.01251V61.5453C6.01251 59.4823 13.101 53.4398 25.4712 51.421ZM42.1501 51.421C54.5203 53.4426 61.6088 59.4823 61.6088 61.5453V67.3441H35.0255L42.1501 51.421Z" fill="#1D957F"/>
</svg>
